# xmcd
#
# Track frame offsets: 
#        150
#        23912
#        46357
#        70215
#        90517
#        107412
#        121645
#        140747
#        162482
#        183637
#        203872
#        223587
#
# Disc length: 3275 seconds
#
# Revision: 52
# Processed by: cddbd v1.5.2PL0 Copyright (c) Steve Scherf et al.
# Submitted via: ExactAudioCopy v0.99pb5
#
DISCID=a90cc90c
DTITLE=Ngoc Lan - Yeu Dau Khon Nguoi
DYEAR=1992
DGENRE=Soul
TTITLE0=Di Vang - Trinh Nam Son
TTITLE1=Cat Bui Tinh Xa - Trinh Cong Son
TTITLE2=Nang Thu - Pham Duy
TTITLE3=Mot Lan Nao Cho Toi Gap Lai Em - Vu Thanh An
TTITLE4=Tinh Yeu Den Trong Gia Tu
TTITLE5=Da Bao Nam - Nguyen Ngoc Trong
TTITLE6=Quen Di Tinh Yeu Cu - Trinh Nam Son
TTITLE7=Em Ve Nao Co Hay - Hoang Ngoc Thuy
TTITLE8=Rung Xua Da Khep - Trinh Cong Son
TTITLE9=Va Toi Cung Yeu Em - Duc Huy
TTITLE10=Lien Khuc Tinh Buon - Duc Huy
TTITLE11=Co Xot Xa Dua - Trinh Cong Son
EXTD=
EXTT0=
EXTT1=
EXTT2=
EXTT3=
EXTT4=
EXTT5=
EXTT6=
EXTT7=
EXTT8=
EXTT9=
EXTT10=
EXTT11=
PLAYORDER=
